STARTFONT 2.1
FONT -DEC-Terminal-Medium-R-Double Wide--14-100-100-100-C-160-DEC-DECtech
SIZE 10 100 100
FONTBOUNDINGBOX 16 15 0 -3

STARTPROPERTIES 25
CHARSET_REGISTRY "DEC"
CHARSET_ENCODING "DECtech"
CAP_HEIGHT 10
X_HEIGHT 8
AVERAGE_WIDTH 160
FONTNAME_REGISTRY ""
FAMILY_NAME "Terminal"
FOUNDRY "DEC"
WEIGHT_NAME "Medium"
SETWIDTH_NAME "Double Wide"
SLANT "R"
ADD_STYLE_NAME ""
PIXEL_SIZE 14
POINT_SIZE 100
RESOLUTION_X 100
RESOLUTION_Y 100
SPACING "C"
CHARSET_COLLECTIONS "DEC-DECtech"
FULL_NAME "Terminal Double Wide"
COPYRIGHT "Copyright (c) 1990 Digital Equipment Corp. All rights reserved."
WEIGHT 10
QUAD_WIDTH 16
DEFAULT_CHAR 159
FONT_DESCENT 3
FONT_ASCENT 12
ENDPROPERTIES

CHARS 181

STARTCHAR space
ENCODING 32
SWIDTH 1140 0
DWIDTH 16 0
BBX 1 1 0 0
BITMAP
00
ENDCHAR

STARTCHAR exclam
ENCODING 33
SWIDTH 1140 0
DWIDTH 16 0
BBX 2 10 7 0
BITMAP
C0
C0
C0
C0
C0
C0
C0
00
C0
C0
ENDCHAR

STARTCHAR quotedbl
ENCODING 34
SWIDTH 1140 0
DWIDTH 16 0
BBX 6 4 5 7
BITMAP
CC
CC
CC
CC
ENDCHAR

STARTCHAR numbersign
ENCODING 35
SWIDTH 1140 0
DWIDTH 16 0
BBX 12 8 2 1
BITMAP
30C0
30C0
FFF0
30C0
30C0
FFF0
30C0
30C0
ENDCHAR

STARTCHAR dollar
ENCODING 36
SWIDTH 1140 0
DWIDTH 16 0
BBX 10 12 4 -1
BITMAP
0C00
0C00
7F80
E1C0
E000
7F80
1FC0
01C0
E1C0
7F80
0C00
0C00
ENDCHAR

STARTCHAR percent
ENCODING 37
SWIDTH 1140 0
DWIDTH 16 0
BBX 13 10 2 0
BITMAP
7830
CC60
CCC0
7980
0300
0600
0CF0
1998
3198
60F0
ENDCHAR

STARTCHAR ampersand
ENCODING 38
SWIDTH 1140 0
DWIDTH 16 0
BBX 14 10 2 0
BITMAP
1F00
3980
3180
3380
1F00
3E30
73E0
E1C0
F3F0
7F3C
ENDCHAR

STARTCHAR quoteright
ENCODING 39
SWIDTH 1140 0
DWIDTH 16 0
BBX 5 3 5 8
BITMAP
78
60
C0
ENDCHAR

STARTCHAR parenleft
ENCODING 40
SWIDTH 1140 0
DWIDTH 16 0
BBX 5 12 7 -1
BITMAP
18
30
70
60
E0
E0
E0
E0
60
70
30
18
ENDCHAR

STARTCHAR parenright
ENCODING 41
SWIDTH 1140 0
DWIDTH 16 0
BBX 5 12 4 -1
BITMAP
C0
60
70
30
38
38
38
38
30
70
60
C0
ENDCHAR

STARTCHAR asterisk
ENCODING 42
SWIDTH 1140 0
DWIDTH 16 0
BBX 10 5 3 5
BITMAP
6180
1E00
FFC0
1E00
6180
ENDCHAR

STARTCHAR plus
ENCODING 43
SWIDTH 1140 0
DWIDTH 16 0
BBX 10 7 3 1
BITMAP
0C00
0C00
0C00
FFC0
0C00
0C00
0C00
ENDCHAR

STARTCHAR comma
ENCODING 44
SWIDTH 1140 0
DWIDTH 16 0
BBX 5 4 5 -2
BITMAP
38
30
60
C0
ENDCHAR

STARTCHAR minus
ENCODING 45
SWIDTH 1140 0
DWIDTH 16 0
BBX 10 1 3 4
BITMAP
FFC0
ENDCHAR

STARTCHAR period
ENCODING 46
SWIDTH 1140 0
DWIDTH 16 0
BBX 3 2 6 0
BITMAP
E0
E0
ENDCHAR

STARTCHAR slash
ENCODING 47
SWIDTH 1140 0
DWIDTH 16 0
BBX 10 12 3 -1
BITMAP
01C0
01C0
0380
0300
0700
0E00
1C00
3800
3000
7000
E000
E000
ENDCHAR

STARTCHAR zero
ENCODING 48
SWIDTH 1140 0
DWIDTH 16 0
BBX 10 10 3 0
BITMAP
1E00
7380
6180
E1C0
E1C0
E1C0
E1C0
6180
7380
1E00
ENDCHAR

STARTCHAR one
ENCODING 49
SWIDTH 1140 0
DWIDTH 16 0
BBX 9 10 4 0
BITMAP
1C00
3C00
7C00
DC00
1C00
1C00
1C00
1C00
1C00
FF80
ENDCHAR

STARTCHAR two
ENCODING 50
SWIDTH 1140 0
DWIDTH 16 0
BBX 10 10 3 0
BITMAP
7F80
E1C0
01C0
03C0
0780
1E00
3800
70C0
E0C0
FFC0
ENDCHAR

STARTCHAR three
ENCODING 51
SWIDTH 1140 0
DWIDTH 16 0
BBX 10 10 3 0
BITMAP
7F80
E3C0
01C0
0380
1E00
0380
01C0
C1C0
E3C0
7F80
ENDCHAR

STARTCHAR four
ENCODING 52
SWIDTH 1140 0
DWIDTH 16 0
BBX 11 10 3 0
BITMAP
0380
0780
0F80
1B80
3380
6380
C380
FFE0
0380
0380
ENDCHAR

STARTCHAR five
ENCODING 53
SWIDTH 1140 0
DWIDTH 16 0
BBX 9 10 4 0
BITMAP
FF80
E180
E000
E000
FF00
E780
0380
0380
E780
7F00
ENDCHAR

STARTCHAR six
ENCODING 54
SWIDTH 1140 0
DWIDTH 16 0
BBX 11 10 3 0
BITMAP
0F80
39C0
7000
E000
EFC0
F1E0
E0E0
E0E0
71C0
3F80
ENDCHAR

STARTCHAR seven
ENCODING 55
SWIDTH 1140 0
DWIDTH 16 0
BBX 11 10 3 0
BITMAP
FFE0
C1E0
C3C0
0780
0700
0F00
1E00
1E00
3C00
3C00
ENDCHAR

STARTCHAR eight
ENCODING 56
SWIDTH 1140 0
DWIDTH 16 0
BBX 10 10 3 0
BITMAP
7F80
F3C0
E1C0
7380
3F00
7380
E1C0
E1C0
F3C0
7F80
ENDCHAR

STARTCHAR nine
ENCODING 57
SWIDTH 1140 0
DWIDTH 16 0
BBX 11 10 2 0
BITMAP
3F80
F1C0
E0E0
E0E0
71E0
3EE0
00E0
01C0
7380
3E00
ENDCHAR

STARTCHAR colon
ENCODING 58
SWIDTH 1140 0
DWIDTH 16 0
BBX 3 7 6 0
BITMAP
E0
E0
00
00
00
E0
E0
ENDCHAR

STARTCHAR semicolon
ENCODING 59
SWIDTH 1140 0
DWIDTH 16 0
BBX 5 9 4 -2
BITMAP
38
38
00
00
00
38
30
60
C0
ENDCHAR

STARTCHAR less
ENCODING 60
SWIDTH 1140 0
DWIDTH 16 0
BBX 7 10 5 0
BITMAP
0E
1C
38
70
E0
E0
70
38
1C
0E
ENDCHAR

STARTCHAR equal
ENCODING 61
SWIDTH 1140 0
DWIDTH 16 0
BBX 10 4 3 2
BITMAP
FFC0
0000
0000
FFC0
ENDCHAR

STARTCHAR greater
ENCODING 62
SWIDTH 1140 0
DWIDTH 16 0
BBX 7 10 5 0
BITMAP
E0
70
38
1C
0E
0E
1C
38
70
E0
ENDCHAR

STARTCHAR question
ENCODING 63
SWIDTH 1140 0
DWIDTH 16 0
BBX 10 10 3 0
BITMAP
7F80
E1C0
C1C0
0380
0700
0E00
0C00
0000
0C00
0C00
ENDCHAR

STARTCHAR at
ENCODING 64
SWIDTH 1140 0
DWIDTH 16 0
BBX 14 10 2 0
BITMAP
0FF0
3838
701C
E3FC
E61C
E73C
E3DC
E000
7000
1FE0
ENDCHAR

STARTCHAR A
ENCODING 65
SWIDTH 1140 0
DWIDTH 16 0
BBX 14 10 2 0
BITMAP
0300
0780
0FC0
0CC0
1CE0
3870
3FF0
7038
7038
F87C
ENDCHAR

STARTCHAR B
ENCODING 66
SWIDTH 1140 0
DWIDTH 16 0
BBX 13 10 2 0
BITMAP
FFF0
7078
7038
7070
7FE0
7070
7038
7038
7078
FFF0
ENDCHAR

STARTCHAR C
ENCODING 67
SWIDTH 1140 0
DWIDTH 16 0
BBX 13 10 2 0
BITMAP
1FF0
7838
7018
E000
E000
E000
E008
7018
7C38
1FF0
ENDCHAR

STARTCHAR D
ENCODING 68
SWIDTH 1140 0
DWIDTH 16 0
BBX 14 10 1 0
BITMAP
FFE0
3878
3838
381C
381C
381C
381C
3838
3878
FFE0
ENDCHAR

STARTCHAR E
ENCODING 69
SWIDTH 1140 0
DWIDTH 16 0
BBX 12 10 2 0
BITMAP
FFF0
3830
3810
3800
3FC0
3800
3800
3810
3830
FFF0
ENDCHAR

STARTCHAR F
ENCODING 70
SWIDTH 1140 0
DWIDTH 16 0
BBX 12 10 3 0
BITMAP
FFF0
3830
3810
3800
3800
3FC0
3800
3800
3800
FE00
ENDCHAR

STARTCHAR G
ENCODING 71
SWIDTH 1140 0
DWIDTH 16 0
BBX 13 10 2 0
BITMAP
0FF0
3830
7010
E000
E000
E0F8
E018
7018
7838
1FF0
ENDCHAR

STARTCHAR H
ENCODING 72
SWIDTH 1140 0
DWIDTH 16 0
BBX 13 10 2 0
BITMAP
F8F8
7070
7070
7070
7FF0
7070
7070
7070
7070
F8F8
ENDCHAR

STARTCHAR I
ENCODING 73
SWIDTH 1140 0
DWIDTH 16 0
BBX 9 10 4 0
BITMAP
FF80
1C00
1C00
1C00
1C00
1C00
1C00
1C00
1C00
FF80
ENDCHAR

STARTCHAR J
ENCODING 74
SWIDTH 1140 0
DWIDTH 16 0
BBX 10 10 3 0
BITMAP
3FC0
01C0
01C0
01C0
01C0
01C0
01C0
C1C0
E3C0
7F80
ENDCHAR

STARTCHAR K
ENCODING 75
SWIDTH 1140 0
DWIDTH 16 0
BBX 14 10 2 0
BITMAP
FC38
3870
38E0
39C0
3B80
3FC0
39E0
38F0
3878
FC3C
ENDCHAR

STARTCHAR L
ENCODING 76
SWIDTH 1140 0
DWIDTH 16 0
BBX 12 10 3 0
BITMAP
FE00
3800
3800
3800
3800
3800
3810
3830
3870
FFF0
ENDCHAR

STARTCHAR M
ENCODING 77
SWIDTH 1140 0
DWIDTH 16 0
BBX 14 10 2 0
BITMAP
F03C
7878
7CF8
74B8
77B8
7338
7338
7338
7038
F03C
ENDCHAR

STARTCHAR N
ENCODING 78
SWIDTH 1140 0
DWIDTH 16 0
BBX 14 10 2 0
BITMAP
F03C
7838
7C38
7638
7738
73B8
71B8
70F8
7078
F038
ENDCHAR

STARTCHAR O
ENCODING 79
SWIDTH 1140 0
DWIDTH 16 0
BBX 13 10 2 0
BITMAP
1FC0
78F0
7070
E038
E038
E038
E038
7070
78F0
1FC0
ENDCHAR

STARTCHAR P
ENCODING 80
SWIDTH 1140 0
DWIDTH 16 0
BBX 14 10 2 0
BITMAP
FFF0
3838
381C
381C
381C
3838
3FF0
3800
3800
FE00
ENDCHAR

STARTCHAR Q
ENCODING 81
SWIDTH 1140 0
DWIDTH 16 0
BBX 13 11 2 -1
BITMAP
1FC0
70F0
6070
E038
E038
E038
E038
71B0
78F0
1FE0
0038
ENDCHAR

STARTCHAR R
ENCODING 82
SWIDTH 1140 0
DWIDTH 16 0
BBX 14 10 2 0
BITMAP
FFF0
3878
3838
3838
3870
3FC0
39E0
38F0
3878
FE3C
ENDCHAR

STARTCHAR S
ENCODING 83
SWIDTH 1140 0
DWIDTH 16 0
BBX 12 10 3 0
BITMAP
1FC0
7060
E060
F000
7FC0
3FE0
00F0
C070
E0E0
7F80
ENDCHAR

STARTCHAR T
ENCODING 84
SWIDTH 1140 0
DWIDTH 16 0
BBX 13 10 2 0
BITMAP
FFF8
C718
8708
0700
0700
0700
0700
0700
0700
1FC0
ENDCHAR

STARTCHAR U
ENCODING 85
SWIDTH 1140 0
DWIDTH 16 0
BBX 13 10 2 0
BITMAP
F8F8
7070
7070
7070
7070
7070
7070
7070
38E0
1FC0
ENDCHAR

STARTCHAR V
ENCODING 86
SWIDTH 1140 0
DWIDTH 16 0
BBX 15 10 1 0
BITMAP
F01E
701C
3838
3838
1C70
1C70
0EE0
07C0
0380
0100
ENDCHAR

STARTCHAR W
ENCODING 87
SWIDTH 1140 0
DWIDTH 16 0
BBX 16 10 0 0
BITMAP
F00F
F00F
718E
399C
3BDC
3BDC
1E78
1E78
1C38
1C38
ENDCHAR

STARTCHAR X
ENCODING 88
SWIDTH 1140 0
DWIDTH 16 0
BBX 14 10 1 0
BITMAP
F03C
3870
1CE0
0FC0
0780
0780
0FC0
1CE0
3870
F03C
ENDCHAR

STARTCHAR Y
ENCODING 89
SWIDTH 1140 0
DWIDTH 16 0
BBX 15 10 1 0
BITMAP
F01E
3838
1C70
0EE0
06C0
0380
0380
0380
0380
07C0
ENDCHAR

STARTCHAR Z
ENCODING 90
SWIDTH 1140 0
DWIDTH 16 0
BBX 11 10 3 0
BITMAP
FFE0
C1E0
83C0
0780
0F00
1E00
3C00
7820
F060
FFE0
ENDCHAR

STARTCHAR bracketleft
ENCODING 91
SWIDTH 1140 0
DWIDTH 16 0
BBX 6 12 7 -1
BITMAP
FC
E0
E0
E0
E0
E0
E0
E0
E0
E0
E0
FC
ENDCHAR

STARTCHAR backslash
ENCODING 92
SWIDTH 1140 0
DWIDTH 16 0
BBX 10 12 3 -1
BITMAP
E000
E000
7000
3000
3800
1C00
0E00
0700
0300
0380
01C0
01C0
ENDCHAR

STARTCHAR bracketright
ENCODING 93
SWIDTH 1140 0
DWIDTH 16 0
BBX 6 12 3 -1
BITMAP
FC
1C
1C
1C
1C
1C
1C
1C
1C
1C
1C
FC
ENDCHAR

STARTCHAR asciicircum
ENCODING 94
SWIDTH 1140 0
DWIDTH 16 0
BBX 9 4 4 4
BITMAP
1C00
3E00
7700
E380
ENDCHAR

STARTCHAR ldblank
ENCODING 95
SWIDTH 1140 0
DWIDTH 16 0
BBX 1 1 0 0
BITMAP
00
ENDCHAR

STARTCHAR diamond
ENCODING 96
SWIDTH 1140 0
DWIDTH 16 0
BBX 14 7 1 -1
BITMAP
0300
0FC0
3FF0
FFFC
3FF0
0FC0
0300
ENDCHAR

STARTCHAR checkerboard
ENCODING 97
SWIDTH 1140 0
DWIDTH 16 0
BBX 16 15 0 -3
BITMAP
3333
CCCC
3333
CCCC
3333
CCCC
3333
CCCC
3333
CCCC
3333
CCCC
3333
CCCC
CCCC
ENDCHAR

STARTCHAR HT
ENCODING 98
SWIDTH 1140 0
DWIDTH 16 0
BBX 12 13 2 -2
BITMAP
C300
C300
FF00
C300
C300
C300
0000
3FF0
0300
0300
0300
0300
0300
ENDCHAR

STARTCHAR FF
ENCODING 99
SWIDTH 1140 0
DWIDTH 16 0
BBX 12 13 2 -2
BITMAP
FC00
C000
C000
FC00
C000
C000
C3F0
0300
0300
03F0
0300
0300
0300
ENDCHAR

STARTCHAR CR
ENCODING 100
SWIDTH 1140 0
DWIDTH 16 0
BBX 12 12 2 -1
BITMAP
7F00
C180
C000
C180
7F00
0000
3FE0
3030
3030
3FE0
30C0
3030
ENDCHAR

STARTCHAR LF
ENCODING 101
SWIDTH 1140 0
DWIDTH 16 0
BBX 12 13 2 -2
BITMAP
C000
C000
C000
C000
C000
FF00
0000
0FF0
0C00
0C00
0FF0
0C00
0C00
ENDCHAR

STARTCHAR degree
ENCODING 102
SWIDTH 1140 0
DWIDTH 16 0
BBX 8 4 4 6
BITMAP
7E
C3
C3
7E
ENDCHAR

STARTCHAR plusminus
ENCODING 103
SWIDTH 1140 0
DWIDTH 16 0
BBX 10 9 3 0
BITMAP
0C00
0C00
0C00
FFC0
0C00
0C00
0C00
0000
FFC0
ENDCHAR

STARTCHAR NL
ENCODING 104
SWIDTH 1140 0
DWIDTH 16 0
BBX 12 11 2 -1
BITMAP
E0C0
F8C0
CCC0
C7C0
C1C0
0000
0C00
0C00
0C00
0C00
0FF0
ENDCHAR

STARTCHAR VT
ENCODING 105
SWIDTH 1140 0
DWIDTH 16 0
BBX 12 11 2 -1
BITMAP
C0C0
C0C0
C0C0
7380
1E00
0000
3FF0
0300
0300
0300
0300
ENDCHAR

STARTCHAR ldcornsqlr
ENCODING 106
SWIDTH 1140 0
DWIDTH 16 0
BBX 10 8 0 4
BITMAP
01C0
01C0
01C0
01C0
01C0
01C0
01C0
FFC0
ENDCHAR

STARTCHAR ldcornsqur
ENCODING 107
SWIDTH 1140 0
DWIDTH 16 0
BBX 10 8 0 -3
BITMAP
FFC0
01C0
01C0
01C0
01C0
01C0
01C0
01C0
ENDCHAR

STARTCHAR ldcornsqul
ENCODING 108
SWIDTH 1140 0
DWIDTH 16 0
BBX 9 8 7 -3
BITMAP
FF80
E000
E000
E000
E000
E000
E000
E000
ENDCHAR

STARTCHAR ldcornsqll
ENCODING 109
SWIDTH 1140 0
DWIDTH 16 0
BBX 9 8 7 4
BITMAP
E000
E000
E000
E000
E000
E000
E000
FF80
ENDCHAR

STARTCHAR ldcross
ENCODING 110
SWIDTH 1140 0
DWIDTH 16 0
BBX 16 15 0 -3
BITMAP
01C0
01C0
01C0
01C0
01C0
01C0
01C0
FFFF
01C0
01C0
01C0
01C0
01C0
01C0
01C0
ENDCHAR

STARTCHAR ldscan1
ENCODING 111
SWIDTH 1140 0
DWIDTH 16 0
BBX 16 1 0 10
BITMAP
FFFF
ENDCHAR

STARTCHAR ldscan3
ENCODING 112
SWIDTH 1140 0
DWIDTH 16 0
BBX 16 1 0 7
BITMAP
FFFF
ENDCHAR

STARTCHAR ldhorizontal
ENCODING 113
SWIDTH 1140 0
DWIDTH 16 0
BBX 16 1 0 4
BITMAP
FFFF
ENDCHAR

STARTCHAR ldscan7
ENCODING 114
SWIDTH 1140 0
DWIDTH 16 0
BBX 16 1 0 0
BITMAP
FFFF
ENDCHAR

STARTCHAR ldscan9
ENCODING 115
SWIDTH 1140 0
DWIDTH 16 0
BBX 16 1 0 -3
BITMAP
FFFF
ENDCHAR

STARTCHAR ldteelft
ENCODING 116
SWIDTH 1140 0
DWIDTH 16 0
BBX 9 15 7 -3
BITMAP
E000
E000
E000
E000
E000
E000
E000
FF80
E000
E000
E000
E000
E000
E000
E000
ENDCHAR

STARTCHAR ldteert
ENCODING 117
SWIDTH 1140 0
DWIDTH 16 0
BBX 10 15 0 -3
BITMAP
01C0
01C0
01C0
01C0
01C0
01C0
01C0
FFC0
01C0
01C0
01C0
01C0
01C0
01C0
01C0
ENDCHAR

STARTCHAR ldteebt
ENCODING 118
SWIDTH 1140 0
DWIDTH 16 0
BBX 16 8 0 4
BITMAP
01C0
01C0
01C0
01C0
01C0
01C0
01C0
FFFF
ENDCHAR

STARTCHAR ldteetp
ENCODING 119
SWIDTH 1140 0
DWIDTH 16 0
BBX 16 8 0 -3
BITMAP
FFFF
01C0
01C0
01C0
01C0
01C0
01C0
01C0
ENDCHAR

STARTCHAR ldvertical
ENCODING 120
SWIDTH 1140 0
DWIDTH 16 0
BBX 3 15 7 -3
BITMAP
E0
E0
E0
E0
E0
E0
E0
E0
E0
E0
E0
E0
E0
E0
E0
ENDCHAR

STARTCHAR lessequal
ENCODING 121
SWIDTH 1140 0
DWIDTH 16 0
BBX 10 9 3 0
BITMAP
03C0
0F00
3800
F000
3800
0F00
03C0
0000
FFC0
ENDCHAR

STARTCHAR greaterequal
ENCODING 122
SWIDTH 1140 0
DWIDTH 16 0
BBX 10 9 3 0
BITMAP
F000
3C00
0700
03C0
0700
3C00
F000
0000
FFC0
ENDCHAR

STARTCHAR pi
ENCODING 123
SWIDTH 1140 0
DWIDTH 16 0
BBX 13 8 2 0
BITMAP
FFF8
38E0
38E0
38E0
38E0
38E0
38E0
F0E0
ENDCHAR

STARTCHAR notequal
ENCODING 124
SWIDTH 1140 0
DWIDTH 16 0
BBX 10 10 3 -1
BITMAP
00C0
0180
0300
FFC0
0C00
1800
FFC0
3000
6000
C000
ENDCHAR

STARTCHAR sterling
ENCODING 125
SWIDTH 1140 0
DWIDTH 16 0
BBX 10 10 4 0
BITMAP
1F00
3D80
3800
3800
FF00
3800
3800
3800
7DC0
E780
ENDCHAR

STARTCHAR periodcentered
ENCODING 126
SWIDTH 1140 0
DWIDTH 16 0
BBX 2 2 7 4
BITMAP
C0
C0
ENDCHAR

STARTCHAR Error
ENCODING 159
SWIDTH 1140 0
DWIDTH 16 0
BBX 12 15 2 -3
BITMAP
1F80
7FE0
F1F0
F0F0
F800
7C00
3E00
1E00
1F00
0F00
0F00
0000
0F00
0F00
0F00
ENDCHAR

STARTCHAR ldradicalbt
ENCODING 161
SWIDTH 1140 0
DWIDTH 16 0
BBX 8 12 2 0
BITMAP
07
07
07
07
07
07
07
E7
37
0F
07
03
ENDCHAR

STARTCHAR ldradicaltp
ENCODING 162
SWIDTH 1140 0
DWIDTH 16 0
BBX 9 7 7 -3
BITMAP
FF80
E000
E000
E000
E000
E000
E000
ENDCHAR

STARTCHAR ldhorizontal
ENCODING 163
SWIDTH 1140 0
DWIDTH 16 0
BBX 16 1 0 4
BITMAP
FFFF
ENDCHAR

STARTCHAR ldintegraltp
ENCODING 164
SWIDTH 1140 0
DWIDTH 16 0
BBX 7 11 7 -3
BITMAP
3C
66
E0
E0
E0
E0
E0
E0
E0
E0
E0
ENDCHAR

STARTCHAR ldintegralbt
ENCODING 165
SWIDTH 1140 0
DWIDTH 16 0
BBX 7 11 3 1
BITMAP
0E
0E
0E
0E
0E
0E
0E
0E
0E
CC
78
ENDCHAR

STARTCHAR ldvertical
ENCODING 166
SWIDTH 1140 0
DWIDTH 16 0
BBX 3 15 7 -3
BITMAP
E0
E0
E0
E0
E0
E0
E0
E0
E0
E0
E0
E0
E0
E0
E0
ENDCHAR

STARTCHAR ldbracketlfttp
ENCODING 167
SWIDTH 1140 0
DWIDTH 16 0
BBX 8 14 7 -3
BITMAP
FF
E0
E0
E0
E0
E0
E0
E0
E0
E0
E0
E0
E0
E0
ENDCHAR

STARTCHAR ldbracketlftbt
ENCODING 168
SWIDTH 1140 0
DWIDTH 16 0
BBX 8 14 7 -2
BITMAP
E0
E0
E0
E0
E0
E0
E0
E0
E0
E0
E0
E0
E0
FF
ENDCHAR

STARTCHAR ldbracketrttp
ENCODING 169
SWIDTH 1140 0
DWIDTH 16 0
BBX 7 14 3 -3
BITMAP
FE
0E
0E
0E
0E
0E
0E
0E
0E
0E
0E
0E
0E
0E
ENDCHAR

STARTCHAR ldbracketrtbt
ENCODING 170
SWIDTH 1140 0
DWIDTH 16 0
BBX 7 14 3 -2
BITMAP
0E
0E
0E
0E
0E
0E
0E
0E
0E
0E
0E
0E
0E
FE
ENDCHAR

STARTCHAR ldbracelfttp
ENCODING 171
SWIDTH 1140 0
DWIDTH 16 0
BBX 8 14 7 -3
BITMAP
1F
70
E0
E0
E0
E0
E0
E0
E0
E0
E0
E0
E0
E0
ENDCHAR

STARTCHAR ldbracelftbt
ENCODING 172
SWIDTH 1140 0
DWIDTH 16 0
BBX 8 14 7 -2
BITMAP
E0
E0
E0
E0
E0
E0
E0
E0
E0
E0
E0
E0
70
1F
ENDCHAR

STARTCHAR ldbracerttp
ENCODING 173
SWIDTH 1140 0
DWIDTH 16 0
BBX 8 14 2 -3
BITMAP
F8
0E
07
07
07
07
07
07
07
07
07
07
07
07
ENDCHAR

STARTCHAR ldbracertbt
ENCODING 174
SWIDTH 1140 0
DWIDTH 16 0
BBX 8 14 2 -2
BITMAP
07
07
07
07
07
07
07
07
07
07
07
07
0E
F8
ENDCHAR

STARTCHAR ldbracelftmid
ENCODING 175
SWIDTH 1140 0
DWIDTH 16 0
BBX 5 15 5 -3
BITMAP
38
38
38
38
30
60
C0
60
30
38
38
38
38
38
38
ENDCHAR

STARTCHAR ldbracertmid
ENCODING 176
SWIDTH 1140 0
DWIDTH 16 0
BBX 6 15 7 -3
BITMAP
E0
E0
E0
E0
70
18
0C
18
70
E0
E0
E0
E0
E0
E0
ENDCHAR

STARTCHAR ldsigmalfttp
ENCODING 177
SWIDTH 1140 0
DWIDTH 16 0
BBX 8 8 8 -3
BITMAP
FF
E0
70
38
1C
0E
07
03
ENDCHAR

STARTCHAR ldsigmalftbt
ENCODING 178
SWIDTH 1140 0
DWIDTH 16 0
BBX 7 8 9 4
BITMAP
06
0E
1C
18
30
70
E0
FE
ENDCHAR

STARTCHAR ldbackslash
ENCODING 179
SWIDTH 1140 0
DWIDTH 16 0
BBX 16 15 0 -3
BITMAP
C000
E000
7000
3800
1C00
0E00
0780
03C0
00E0
0070
0038
001C
000E
0007
0003
ENDCHAR

STARTCHAR ldslash
ENCODING 180
SWIDTH 1140 0
DWIDTH 16 0
BBX 16 15 0 -3
BITMAP
0003
0007
000E
001C
0038
0070
01E0
03C0
0700
0E00
1C00
3800
7000
E000
C000
ENDCHAR

STARTCHAR ldsigmarttp
ENCODING 181
SWIDTH 1140 0
DWIDTH 16 0
BBX 14 3 0 2
BITMAP
FFFC
001C
001C
ENDCHAR

STARTCHAR ldsigmartbt
ENCODING 182
SWIDTH 1140 0
DWIDTH 16 0
BBX 14 3 0 4
BITMAP
001C
001C
FFFC
ENDCHAR

STARTCHAR ldsigmamid
ENCODING 183
SWIDTH 1140 0
DWIDTH 16 0
BBX 8 15 0 -3
BITMAP
C0
E0
70
38
1C
0E
06
03
07
0E
1C
38
70
E0
C0
ENDCHAR

STARTCHAR lessequal
ENCODING 188
SWIDTH 1140 0
DWIDTH 16 0
BBX 10 9 3 0
BITMAP
03C0
0F00
3800
F000
3800
0F00
03C0
0000
FFC0
ENDCHAR

STARTCHAR notequal
ENCODING 189
SWIDTH 1140 0
DWIDTH 16 0
BBX 10 10 3 -1
BITMAP
00C0
0180
0300
FFC0
0C00
1800
FFC0
3000
6000
C000
ENDCHAR

STARTCHAR greaterequal
ENCODING 190
SWIDTH 1140 0
DWIDTH 16 0
BBX 10 9 3 0
BITMAP
F000
3C00
0700
03C0
0700
3C00
F000
0000
FFC0
ENDCHAR

STARTCHAR integral
ENCODING 191
SWIDTH 1140 0
DWIDTH 16 0
BBX 11 12 2 -1
BITMAP
07C0
0E60
0E00
0E00
0E00
0E00
0E00
0E00
0E00
0E00
CE00
7C00
ENDCHAR

STARTCHAR therefore
ENCODING 192
SWIDTH 1140 0
DWIDTH 16 0
BBX 10 7 3 1
BITMAP
0C00
0C00
0000
0000
0000
C0C0
C0C0
ENDCHAR

STARTCHAR proportional
ENCODING 193
SWIDTH 1140 0
DWIDTH 16 0
BBX 11 5 2 2
BITMAP
79E0
EF60
C600
EF60
79E0
ENDCHAR

STARTCHAR infinity
ENCODING 194
SWIDTH 1140 0
DWIDTH 16 0
BBX 12 5 2 2
BITMAP
79E0
EF70
C630
EF70
79E0
ENDCHAR

STARTCHAR divide
ENCODING 195
SWIDTH 1140 0
DWIDTH 16 0
BBX 10 7 3 1
BITMAP
0C00
0C00
0000
FFC0
0000
0C00
0C00
ENDCHAR

STARTCHAR Delta
ENCODING 196
SWIDTH 1140 0
DWIDTH 16 0
BBX 10 7 3 1
BITMAP
0C00
1E00
3300
6180
C0C0
C0C0
FFC0
ENDCHAR

STARTCHAR gradient
ENCODING 197
SWIDTH 1140 0
DWIDTH 16 0
BBX 10 7 3 1
BITMAP
FFC0
C0C0
C0C0
6180
3300
1E00
0C00
ENDCHAR

STARTCHAR Phi
ENCODING 198
SWIDTH 1140 0
DWIDTH 16 0
BBX 10 10 3 0
BITMAP
3F00
0C00
7F80
CCC0
CCC0
CCC0
CCC0
7F80
0C00
3F00
ENDCHAR

STARTCHAR Gamma
ENCODING 199
SWIDTH 1140 0
DWIDTH 16 0
BBX 10 10 3 0
BITMAP
FFC0
30C0
3040
3000
3000
3000
3000
3000
3000
FC00
ENDCHAR

STARTCHAR similar
ENCODING 200
SWIDTH 1140 0
DWIDTH 16 0
BBX 13 4 2 2
BITMAP
1C18
3F30
67E0
C1C0
ENDCHAR

STARTCHAR approxequal
ENCODING 201
SWIDTH 1140 0
DWIDTH 16 0
BBX 13 6 2 1
BITMAP
1C18
3F30
67E0
C1C0
0000
FFF8
ENDCHAR

STARTCHAR Theta
ENCODING 202
SWIDTH 1140 0
DWIDTH 16 0
BBX 12 10 2 0
BITMAP
3FC0
70E0
6060
E070
E970
E970
E070
6060
70E0
3FC0
ENDCHAR

STARTCHAR multiply
ENCODING 203
SWIDTH 1140 0
DWIDTH 16 0
BBX 10 5 3 1
BITMAP
E1C0
3F00
0C00
3F00
E1C0
ENDCHAR

STARTCHAR Lambda
ENCODING 204
SWIDTH 1140 0
DWIDTH 16 0
BBX 14 10 1 0
BITMAP
0780
1CE0
1860
3870
3870
3870
3870
3870
3870
F87C
ENDCHAR

STARTCHAR arrowdblboth
ENCODING 205
SWIDTH 1140 0
DWIDTH 16 0
BBX 14 7 1 1
BITMAP
1020
2010
7FF8
E01C
7FF8
2010
1020
ENDCHAR

STARTCHAR arrowdblright
ENCODING 206
SWIDTH 1140 0
DWIDTH 16 0
BBX 12 7 3 1
BITMAP
0080
0040
FFE0
0070
FFE0
0040
0080
ENDCHAR

STARTCHAR equivalence
ENCODING 207
SWIDTH 1140 0
DWIDTH 16 0
BBX 12 5 2 2
BITMAP
FFF0
0000
FFF0
0000
FFF0
ENDCHAR

STARTCHAR Pi
ENCODING 208
SWIDTH 1140 0
DWIDTH 16 0
BBX 13 10 1 0
BITMAP
FFF8
38E0
38E0
38E0
38E0
38E0
38E0
38E0
38E0
78F0
ENDCHAR

STARTCHAR Psi
ENCODING 209
SWIDTH 1140 0
DWIDTH 16 0
BBX 14 10 1 0
BITMAP
F33C
7338
7338
7338
7338
3330
1FE0
0300
0300
0FC0
ENDCHAR

STARTCHAR Sigma
ENCODING 211
SWIDTH 1140 0
DWIDTH 16 0
BBX 12 10 2 0
BITMAP
FFF0
7030
3810
1C00
0E00
0E00
1C00
3810
7030
FFF0
ENDCHAR

STARTCHAR radical
ENCODING 214
SWIDTH 1140 0
DWIDTH 16 0
BBX 15 11 1 1
BITMAP
000E
001C
0038
0070
00E0
01C0
6380
F700
3E00
3C00
1800
ENDCHAR

STARTCHAR Omega
ENCODING 215
SWIDTH 1140 0
DWIDTH 16 0
BBX 12 10 2 0
BITMAP
1F80
79E0
70E0
E070
E070
70E0
79E0
1980
9990
F9F0
ENDCHAR

STARTCHAR Xi
ENCODING 216
SWIDTH 1140 0
DWIDTH 16 0
BBX 10 10 3 0
BITMAP
FFC0
FFC0
0000
0000
7F80
7F80
0000
0000
FFC0
FFC0
ENDCHAR

STARTCHAR Upsilon1
ENCODING 217
SWIDTH 1140 0
DWIDTH 16 0
BBX 15 10 1 0
BITMAP
F01E
3838
1C70
0EE0
06C0
0380
0380
0380
0380
07C0
ENDCHAR

STARTCHAR propersubset
ENCODING 218
SWIDTH 1140 0
DWIDTH 16 0
BBX 10 7 3 1
BITMAP
7FC0
E000
E000
E000
E000
E000
7FC0
ENDCHAR

STARTCHAR propersuperset
ENCODING 219
SWIDTH 1140 0
DWIDTH 16 0
BBX 10 7 3 1
BITMAP
FF80
01C0
01C0
01C0
01C0
01C0
FF80
ENDCHAR

STARTCHAR intersection
ENCODING 220
SWIDTH 1140 0
DWIDTH 16 0
BBX 11 7 3 1
BITMAP
7FC0
E0E0
E0E0
E0E0
E0E0
E0E0
E0E0
ENDCHAR

STARTCHAR union
ENCODING 221
SWIDTH 1140 0
DWIDTH 16 0
BBX 11 7 3 1
BITMAP
E0E0
E0E0
E0E0
E0E0
E0E0
E0E0
7FC0
ENDCHAR

STARTCHAR logicaland
ENCODING 222
SWIDTH 1140 0
DWIDTH 16 0
BBX 10 7 3 1
BITMAP
0C00
1E00
3300
6180
E1C0
C0C0
C0C0
ENDCHAR

STARTCHAR logicalor
ENCODING 223
SWIDTH 1140 0
DWIDTH 16 0
BBX 10 7 3 1
BITMAP
C0C0
C0C0
E1C0
6180
3300
1E00
0C00
ENDCHAR

STARTCHAR logicalnot
ENCODING 224
SWIDTH 1140 0
DWIDTH 16 0
BBX 10 3 3 2
BITMAP
FFC0
00C0
00C0
ENDCHAR

STARTCHAR alpha
ENCODING 225
SWIDTH 1140 0
DWIDTH 16 0
BBX 13 8 2 0
BITMAP
1E38
7370
E1E0
E1C0
E1C0
E1E0
7370
3E38
ENDCHAR

STARTCHAR beta
ENCODING 226
SWIDTH 1140 0
DWIDTH 16 0
BBX 12 10 2 0
BITMAP
07E0
0E70
1C70
1CE0
3FC0
38E0
7860
7870
FCF0
EFE0
ENDCHAR

STARTCHAR chi
ENCODING 227
SWIDTH 1140 0
DWIDTH 16 0
BBX 13 11 3 -3
BITMAP
7838
FC70
CEE0
07C0
0380
0780
0EC0
1CE0
3860
7070
E070
ENDCHAR

STARTCHAR delta
ENCODING 228
SWIDTH 1140 0
DWIDTH 16 0
BBX 11 11 2 0
BITMAP
1FC0
38E0
1C00
1E00
7380
E1C0
E1C0
E1C0
E1C0
7380
3F00
ENDCHAR

STARTCHAR epsilon
ENCODING 229
SWIDTH 1140 0
DWIDTH 16 0
BBX 10 8 3 0
BITMAP
7FC0
E000
E000
FFC0
E000
E000
E000
7FC0
ENDCHAR

STARTCHAR phi
ENCODING 230
SWIDTH 1140 0
DWIDTH 16 0
BBX 12 12 2 -2
BITMAP
00C0
00C0
3FC0
6360
E370
E670
E670
EC70
6C60
3FC0
3000
3000
ENDCHAR

STARTCHAR gamma
ENCODING 231
SWIDTH 1140 0
DWIDTH 16 0
BBX 13 11 2 -3
BITMAP
3C38
7C38
CE38
0630
0730
0360
03C0
0380
0700
1E00
1C00
ENDCHAR

STARTCHAR eta
ENCODING 232
SWIDTH 1140 0
DWIDTH 16 0
BBX 12 11 2 -3
BITMAP
E7E0
3CF0
3870
3870
3870
3870
3870
3870
0070
0070
0070
ENDCHAR

STARTCHAR iota
ENCODING 233
SWIDTH 1140 0
DWIDTH 16 0
BBX 8 8 5 0
BITMAP
E0
E0
E0
E0
E0
E0
E7
7C
ENDCHAR

STARTCHAR theta
ENCODING 234
SWIDTH 1140 0
DWIDTH 16 0
BBX 12 11 2 0
BITMAP
07C0
1C60
3870
7070
7070
FFF0
E0E0
E1E0
E1C0
6380
3E00
ENDCHAR

STARTCHAR kappa
ENCODING 235
SWIDTH 1140 0
DWIDTH 16 0
BBX 13 10 2 0
BITMAP
F800
3800
3870
38E0
3B80
3F80
3BC0
39E0
38F0
3878
ENDCHAR

STARTCHAR lambda
ENCODING 236
SWIDTH 1140 0
DWIDTH 16 0
BBX 12 10 2 0
BITMAP
0E00
0700
0380
0380
07C0
0EC0
1CE0
38E0
7070
E070
ENDCHAR

STARTCHAR nu
ENCODING 238
SWIDTH 1140 0
DWIDTH 16 0
BBX 12 8 2 0
BITMAP
F870
3870
3870
38E0
1CE0
1DC0
0F80
0E00
ENDCHAR

STARTCHAR partialdiff
ENCODING 239
SWIDTH 1140 0
DWIDTH 16 0
BBX 10 11 4 0
BITMAP
F800
1E00
0700
1F80
7380
E1C0
E1C0
E1C0
E1C0
7380
3F00
ENDCHAR

STARTCHAR pi
ENCODING 240
SWIDTH 1140 0
DWIDTH 16 0
BBX 13 8 2 0
BITMAP
FFF8
38E0
38E0
38E0
38E0
38E0
38E0
F0E0
ENDCHAR

STARTCHAR psi
ENCODING 241
SWIDTH 1140 0
DWIDTH 16 0
BBX 14 10 1 -2
BITMAP
F33C
7338
7338
7338
7338
3B70
0FC0
0300
0300
0300
ENDCHAR

STARTCHAR rho
ENCODING 242
SWIDTH 1140 0
DWIDTH 16 0
BBX 9 10 3 -2
BITMAP
3E00
6700
E380
E380
E380
E700
FE00
E000
E000
E000
ENDCHAR

STARTCHAR sigma
ENCODING 243
SWIDTH 1140 0
DWIDTH 16 0
BBX 11 8 2 0
BITMAP
1FE0
7380
E1C0
E1C0
E1C0
E1C0
7380
3F00
ENDCHAR

STARTCHAR tau
ENCODING 244
SWIDTH 1140 0
DWIDTH 16 0
BBX 11 9 2 0
BITMAP
0060
7FC0
CE00
0E00
0E00
0E00
0E00
0E00
0F00
ENDCHAR

STARTCHAR florin
ENCODING 246
SWIDTH 1140 0
DWIDTH 16 0
BBX 12 12 3 -2
BITMAP
03E0
0670
0E00
0E00
3FC0
0E00
0E00
0E00
0E00
CE00
CC00
3800
ENDCHAR

STARTCHAR omega
ENCODING 247
SWIDTH 1140 0
DWIDTH 16 0
BBX 14 8 1 0
BITMAP
7038
6318
E31C
E31C
E31C
E31C
77B8
3CF0
ENDCHAR

STARTCHAR xi
ENCODING 248
SWIDTH 1140 0
DWIDTH 16 0
BBX 8 13 4 -2
BITMAP
30
67
3F
0C
18
1C
7E
F0
E0
E0
7E
07
1E
ENDCHAR

STARTCHAR upsilon
ENCODING 249
SWIDTH 1140 0
DWIDTH 16 0
BBX 12 8 2 0
BITMAP
F070
3870
3870
3870
3870
3870
1CE0
0F80
ENDCHAR

STARTCHAR zeta
ENCODING 250
SWIDTH 1140 0
DWIDTH 16 0
BBX 9 13 3 -2
BITMAP
3000
6380
3F80
0C00
3800
7000
F000
E000
E000
F000
7F00
0380
0F00
ENDCHAR

STARTCHAR arrowleft
ENCODING 251
SWIDTH 1140 0
DWIDTH 16 0
BBX 12 8 2 1
BITMAP
1800
3000
6000
FFF0
FFF0
6000
3000
1800
ENDCHAR

STARTCHAR arrowup
ENCODING 252
SWIDTH 1140 0
DWIDTH 16 0
BBX 10 10 3 -1
BITMAP
0C00
1E00
3F00
6D80
CCC0
0C00
0C00
0C00
0C00
0C00
ENDCHAR

STARTCHAR arrowright
ENCODING 253
SWIDTH 1140 0
DWIDTH 16 0
BBX 12 8 2 1
BITMAP
0180
00C0
0060
FFF0
FFF0
0060
00C0
0180
ENDCHAR

STARTCHAR arrowdown
ENCODING 254
SWIDTH 1140 0
DWIDTH 16 0
BBX 10 10 3 -1
BITMAP
0C00
0C00
0C00
0C00
0C00
CCC0
6D80
3F00
1E00
0C00
ENDCHAR
ENDFONT
